<?xml version="1.0" standalone="no"?><!DOCTYPE svg PUBLIC "-//W3C//DTD SVG 1.1//EN" "http://www.w3.org/Graphics/SVG/1.1/DTD/svg11.dtd"><svg t="1620909145918" class="icon" viewBox="0 0 1028 1024" version="1.1" xmlns="http://www.w3.org/2000/svg" p-id="1243" xmlns:xlink="http://www.w3.org/1999/xlink" width="200.78125" height="200"><defs><style type="text/css"></style></defs><path d="M513.39386 355.486v267.792h-36.412V326.812h-0.058l-311.94 0.058c13.71-83.176 86.078-146.782 173.066-146.782 96.72-0.002 175.344 78.68 175.344 175.398z" fill="#F58E6F" p-id="1244"></path><path d="M87.31586 354.404h314.268l-157.13 133.178zM39.60786 386.348l121.05 102.49-121.05 103.164zM86.95386 624.154l116.38-99.15 41.67 35.244 9.194-8.692 31.49-26.672 116.402 99.27zM430.98586 576.268l-1.984-1.434-100.678-85.246 0.512-0.438-0.468-0.396 95.218-80.62 0.022 0.024 7.812-6.412 17.89-15.254v205.396z" fill="#DFDFDF" p-id="1245"></path><path d="M477.00786 659.068H11.99786A7.306 7.306 0 0 1 4.69186 651.762V326.904a7.308 7.308 0 0 1 7.306-7.306l464.924-0.086a7.4 7.4 0 0 1 5.208 2.14 7.348 7.348 0 0 1 2.184 5.166v324.944a7.304 7.304 0 0 1-7.306 7.306zM19.30586 644.454h450.396V334.128l-450.396 0.08v310.246z" fill="#4A555F" p-id="1246"></path><path d="M244.45586 530.95c-1.68 0-3.358-0.576-4.724-1.732L7.28386 332.388l9.448-11.15 227.724 192.832 227.82-192.834 9.438 11.156-232.538 196.828a7.284 7.284 0 0 1-4.72 1.73z" fill="#4A555F" p-id="1247"></path><path d="M476.99386 659.056H12.02186a7.302 7.302 0 1 1-4.738-12.866l191.262-162.978a7.306 7.306 0 0 1 9.458-0.02l36.5 30.874 36.52-30.964a7.304 7.304 0 0 1 9.466 0.012l191.248 163.076a7.308 7.308 0 0 1-4.744 12.866z m-445.13-14.612h425.298l-171.43-146.18-36.5 30.946a7.306 7.306 0 0 1-9.442 0.008l-36.486-30.862-171.44 146.088z" fill="#4A555F" p-id="1248"></path><path d="M541.84186 659.03h-64.858a7.306 7.306 0 0 1-7.306-7.306V334.12l-333.478 0.054a7.31 7.31 0 0 1-7.236-8.324c14.562-103.482 104.45-181.516 209.086-181.516 56.394 0 109.408 21.954 149.276 61.82 39.868 39.928 61.822 92.962 61.822 149.332v296.238a7.304 7.304 0 0 1-7.306 7.306z m-57.55-14.614h50.244V355.486c0-52.472-20.436-101.838-57.546-139.004-37.104-37.102-86.444-57.536-138.938-57.536-94.566 0-176.192 68.476-193.26 160.612l332.136-0.054a7.366 7.366 0 0 1 7.364 7.306v317.606z" fill="#4A555F" p-id="1249"></path><path d="M1021.38586 659.088l-479.542-0.058a7.308 7.308 0 0 1-7.306-7.306V355.486c0-52.472-20.436-101.838-57.546-139.004-37.104-37.102-86.444-57.536-138.938-57.536a7.306 7.306 0 1 1 0-14.612h479.49C933.96986 144.334 1028.69186 239.056 1028.69186 355.486V651.78a7.306 7.306 0 0 1-7.306 7.308z m-472.236-14.672l464.93 0.058V355.486c0-108.372-88.166-196.54-196.536-196.54H415.55186c26.582 10.472 50.966 26.4 71.774 47.206 39.868 39.928 61.822 92.962 61.822 149.332v288.932z" fill="#4A555F" p-id="1250"></path><path d="M570.28786 623.28V355.486c0-62.006-24.146-120.344-67.998-164.266a237.34 237.34 0 0 0-11.924-11.134h327.176c96.716 0 175.398 78.682 175.398 175.4v267.846l-422.652-0.052z" fill="#71CCE0" p-id="1251"></path><path d="M343.09386 791.832H40.78386c-11.812 0-22.168-7.128-26.388-18.158-4.22-11.03-1.266-23.25 7.53-31.132l107.394-96.238a7.306 7.306 0 0 1 4.876-1.864h407.668a7.31 7.31 0 0 1 4.876 12.75l-110.482 99.006a139.424 139.424 0 0 1-93.164 35.636z m-206.1-132.778l-105.316 94.372c-5.152 4.616-5.256 10.788-3.634 15.028 1.622 4.236 5.818 8.764 12.74 8.764h302.31a124.828 124.828 0 0 0 83.414-31.908l96.254-86.256H136.99386z" fill="#4A555F" p-id="1252"></path><path d="M60.39786 756.078l84.678-75.886h322.418l-55.098 49.376a103.69 103.69 0 0 1-69.304 26.51H60.39786z" fill="#71CCE0" p-id="1253"></path><path d="M749.59586 927.39h-14.614V659.066l-144.048-0.012v268.336h-14.614V651.748a7.306 7.306 0 0 1 7.306-7.306l158.662 0.012a7.306 7.306 0 0 1 7.306 7.306v275.63z" fill="#4A555F" p-id="1254"></path><path d="M612.32986 680.198h101.518v247.19h-101.518z" fill="#F58E6F" p-id="1255"></path><path d="M590.93586 927.368h-14.614V659.066h-31.686l-63.13 56.55v211.752H466.89186V712.35c0-2.076 0.884-4.058 2.43-5.442l67.646-60.59a7.306 7.306 0 0 1 4.876-1.864h41.786a7.306 7.306 0 0 1 7.306 7.306v275.608z" fill="#4A555F" p-id="1256"></path><path d="M554.92586 680.204v247.164h-52.284V722.418l47.05-42.214z" fill="#F58E6F" p-id="1257"></path><path d="M639.80786 111.224h-14.614v-14.614h14.614v14.614z m-29.226 0h-14.614v-14.614h14.614v14.614z m-29.228 0h-14.614v-14.614h14.614v14.614z m-29.226 0h-14.614v-14.614h14.614v14.614z m-29.228 0h-14.614v-14.614h14.614v14.614z m-29.228 0h-14.614v-14.614h14.614v14.614z m-29.226 0h-14.614v-14.614h14.614v14.614z m-29.228 0h-14.614v-14.614h14.614v14.614z m-29.228 0h-14.614v-14.614h14.614v14.614z m-29.226 0h-14.614v-14.614h14.614v14.614z m-29.228 0h-14.614v-14.614h14.614v14.614z m-29.226 0h-14.614v-14.614h14.614v14.614zM887.54586 707.362h-14.614v-14.614h14.614v14.614z m-29.228 0h-14.614v-14.614h14.614v14.614z m-29.226 0h-14.614v-14.614h14.614v14.614z m-29.228 0h-14.614v-14.614h14.614v14.614zM799.61186 823.888h-14.614v-14.614h14.614v14.614z m0-29.228h-14.614v-14.614h14.614v14.614z m0-29.226h-14.614v-14.614h14.614v14.614z m0-29.228h-14.614v-14.614h14.614v14.614z" fill="#4A555F" p-id="1258"></path></svg>